<svg width="48" height="25" fill="none" xmlns="http://www.w3.org/2000/svg"><path d="M4.59.727H.796L9.17 24h4.057L21.602.727h-3.795L11.33 19.682h-.262L4.591.727zm19.245 23.489a2.28 2.28 0 002.273-2.273c0-1.239-1.034-2.261-2.273-2.261a2.277 2.277 0 00-2.273 2.261 2.272 2.272 0 002.273 2.273zM43.625 6.84h3.386C46.91 3.114 43.614.409 38.886.409c-4.67 0-8.25 2.67-8.25 6.682 0 3.238 2.319 5.136 6.057 6.148l2.75.75c2.489.659 4.41 1.477 4.41 3.545 0 2.273-2.171 3.773-5.16 3.773-2.704 0-4.954-1.205-5.159-3.739h-3.523c.228 4.216 3.489 6.818 8.705 6.818 5.466 0 8.614-2.875 8.614-6.818 0-4.193-3.74-5.818-6.694-6.545l-2.272-.591c-1.819-.466-4.239-1.318-4.228-3.546 0-1.977 1.807-3.443 4.67-3.443 2.671 0 4.569 1.25 4.819 3.398z" fill="#fff"/></svg>